<mxfile host="app.diagrams.net" agent="Mozilla/5.0 (Windows NT 10.0; Win64; x64) AppleWebKit/537.36 (KHTML, like Gecko) Chrome/132.0.0.0 Safari/537.36 Edg/132.0.0.0" version="26.0.6">
  <diagram name="PÃ¡gina-1" id="q3rJRUxZ7uViSbQXYZJd">
    <mxGraphModel dx="2240" dy="1518" grid="0" gridSize="10" guides="1" tooltips="1" connect="1" arrows="1" fold="1" page="0" pageScale="1" pageWidth="827" pageHeight="1169" math="0" shadow="0">
      <root>
        <mxCell id="0" />
        <mxCell id="1" parent="0" />
        <mxCell id="aRFu0BlIMAANHYOAxxQj-3" value="" style="edgeStyle=none;curved=1;rounded=0;orthogonalLoop=1;jettySize=auto;html=1;fontSize=12;startSize=8;endSize=8;" edge="1" parent="1" source="aRFu0BlIMAANHYOAxxQj-1" target="aRFu0BlIMAANHYOAxxQj-2">
          <mxGeometry relative="1" as="geometry" />
        </mxCell>
        <mxCell id="aRFu0BlIMAANHYOAxxQj-1" value="Cliente entra a la web" style="rounded=1;whiteSpace=wrap;html=1;" vertex="1" parent="1">
          <mxGeometry x="-61" y="77" width="145" height="60" as="geometry" />
        </mxCell>
        <mxCell id="aRFu0BlIMAANHYOAxxQj-29" value="" style="edgeStyle=none;curved=1;rounded=0;orthogonalLoop=1;jettySize=auto;html=1;fontSize=12;startSize=8;endSize=8;" edge="1" parent="1" source="aRFu0BlIMAANHYOAxxQj-2" target="aRFu0BlIMAANHYOAxxQj-28">
          <mxGeometry relative="1" as="geometry" />
        </mxCell>
        <mxCell id="aRFu0BlIMAANHYOAxxQj-2" value="Registro&lt;br&gt;Usuario" style="whiteSpace=wrap;html=1;rounded=1;" vertex="1" parent="1">
          <mxGeometry x="173" y="77" width="120" height="60" as="geometry" />
        </mxCell>
        <mxCell id="aRFu0BlIMAANHYOAxxQj-4" value="Carro" style="swimlane;fontStyle=0;childLayout=stackLayout;horizontal=1;startSize=30;horizontalStack=0;resizeParent=1;resizeParentMax=0;resizeLast=0;collapsible=1;marginBottom=0;whiteSpace=wrap;html=1;" vertex="1" parent="1">
          <mxGeometry x="245" y="234" width="140" height="150" as="geometry" />
        </mxCell>
        <mxCell id="aRFu0BlIMAANHYOAxxQj-7" value="Placa" style="text;strokeColor=none;fillColor=none;align=left;verticalAlign=middle;spacingLeft=4;spacingRight=4;overflow=hidden;points=[[0,0.5],[1,0.5]];portConstraint=eastwest;rotatable=0;whiteSpace=wrap;html=1;" vertex="1" parent="aRFu0BlIMAANHYOAxxQj-4">
          <mxGeometry y="30" width="140" height="30" as="geometry" />
        </mxCell>
        <mxCell id="aRFu0BlIMAANHYOAxxQj-8" value="Modelo carro" style="text;strokeColor=none;fillColor=none;align=left;verticalAlign=middle;spacingLeft=4;spacingRight=4;overflow=hidden;points=[[0,0.5],[1,0.5]];portConstraint=eastwest;rotatable=0;whiteSpace=wrap;html=1;" vertex="1" parent="aRFu0BlIMAANHYOAxxQj-4">
          <mxGeometry y="60" width="140" height="30" as="geometry" />
        </mxCell>
        <mxCell id="aRFu0BlIMAANHYOAxxQj-10" value="Fecha Renovacion" style="text;strokeColor=none;fillColor=none;align=left;verticalAlign=middle;spacingLeft=4;spacingRight=4;overflow=hidden;points=[[0,0.5],[1,0.5]];portConstraint=eastwest;rotatable=0;whiteSpace=wrap;html=1;" vertex="1" parent="aRFu0BlIMAANHYOAxxQj-4">
          <mxGeometry y="90" width="140" height="30" as="geometry" />
        </mxCell>
        <mxCell id="aRFu0BlIMAANHYOAxxQj-9" value="Estado" style="text;strokeColor=none;fillColor=none;align=left;verticalAlign=middle;spacingLeft=4;spacingRight=4;overflow=hidden;points=[[0,0.5],[1,0.5]];portConstraint=eastwest;rotatable=0;whiteSpace=wrap;html=1;" vertex="1" parent="aRFu0BlIMAANHYOAxxQj-4">
          <mxGeometry y="120" width="140" height="30" as="geometry" />
        </mxCell>
        <mxCell id="aRFu0BlIMAANHYOAxxQj-12" value="Usuario" style="swimlane;fontStyle=0;childLayout=stackLayout;horizontal=1;startSize=30;horizontalStack=0;resizeParent=1;resizeParentMax=0;resizeLast=0;collapsible=1;marginBottom=0;whiteSpace=wrap;html=1;" vertex="1" parent="1">
          <mxGeometry x="-58.5" y="244" width="140" height="210" as="geometry" />
        </mxCell>
        <mxCell id="aRFu0BlIMAANHYOAxxQj-13" value="Nombre" style="text;strokeColor=none;fillColor=none;align=left;verticalAlign=middle;spacingLeft=4;spacingRight=4;overflow=hidden;points=[[0,0.5],[1,0.5]];portConstraint=eastwest;rotatable=0;whiteSpace=wrap;html=1;" vertex="1" parent="aRFu0BlIMAANHYOAxxQj-12">
          <mxGeometry y="30" width="140" height="30" as="geometry" />
        </mxCell>
        <mxCell id="aRFu0BlIMAANHYOAxxQj-14" value="Telefono" style="text;strokeColor=none;fillColor=none;align=left;verticalAlign=middle;spacingLeft=4;spacingRight=4;overflow=hidden;points=[[0,0.5],[1,0.5]];portConstraint=eastwest;rotatable=0;whiteSpace=wrap;html=1;" vertex="1" parent="aRFu0BlIMAANHYOAxxQj-12">
          <mxGeometry y="60" width="140" height="30" as="geometry" />
        </mxCell>
        <mxCell id="aRFu0BlIMAANHYOAxxQj-25" value="Email" style="text;strokeColor=none;fillColor=none;align=left;verticalAlign=middle;spacingLeft=4;spacingRight=4;overflow=hidden;points=[[0,0.5],[1,0.5]];portConstraint=eastwest;rotatable=0;whiteSpace=wrap;html=1;" vertex="1" parent="aRFu0BlIMAANHYOAxxQj-12">
          <mxGeometry y="90" width="140" height="30" as="geometry" />
        </mxCell>
        <mxCell id="aRFu0BlIMAANHYOAxxQj-26" value="Pass" style="text;strokeColor=none;fillColor=none;align=left;verticalAlign=middle;spacingLeft=4;spacingRight=4;overflow=hidden;points=[[0,0.5],[1,0.5]];portConstraint=eastwest;rotatable=0;whiteSpace=wrap;html=1;" vertex="1" parent="aRFu0BlIMAANHYOAxxQj-12">
          <mxGeometry y="120" width="140" height="30" as="geometry" />
        </mxCell>
        <mxCell id="aRFu0BlIMAANHYOAxxQj-17" value="Fecha Registro" style="text;strokeColor=none;fillColor=none;align=left;verticalAlign=middle;spacingLeft=4;spacingRight=4;overflow=hidden;points=[[0,0.5],[1,0.5]];portConstraint=eastwest;rotatable=0;whiteSpace=wrap;html=1;" vertex="1" parent="aRFu0BlIMAANHYOAxxQj-12">
          <mxGeometry y="150" width="140" height="30" as="geometry" />
        </mxCell>
        <mxCell id="aRFu0BlIMAANHYOAxxQj-18" value="Estado" style="text;strokeColor=none;fillColor=none;align=left;verticalAlign=middle;spacingLeft=4;spacingRight=4;overflow=hidden;points=[[0,0.5],[1,0.5]];portConstraint=eastwest;rotatable=0;whiteSpace=wrap;html=1;" vertex="1" parent="aRFu0BlIMAANHYOAxxQj-12">
          <mxGeometry y="180" width="140" height="30" as="geometry" />
        </mxCell>
        <mxCell id="aRFu0BlIMAANHYOAxxQj-19" style="edgeStyle=none;curved=1;rounded=0;orthogonalLoop=1;jettySize=auto;html=1;entryX=0;entryY=0.5;entryDx=0;entryDy=0;fontSize=12;startSize=8;endSize=8;" edge="1" parent="1" source="aRFu0BlIMAANHYOAxxQj-14" target="aRFu0BlIMAANHYOAxxQj-8">
          <mxGeometry relative="1" as="geometry" />
        </mxCell>
        <mxCell id="aRFu0BlIMAANHYOAxxQj-27" value="1...*" style="edgeLabel;html=1;align=center;verticalAlign=middle;resizable=0;points=[];fontSize=12;" vertex="1" connectable="0" parent="aRFu0BlIMAANHYOAxxQj-19">
          <mxGeometry x="-0.5877" y="1" relative="1" as="geometry">
            <mxPoint as="offset" />
          </mxGeometry>
        </mxCell>
        <mxCell id="aRFu0BlIMAANHYOAxxQj-31" value="" style="edgeStyle=none;curved=1;rounded=0;orthogonalLoop=1;jettySize=auto;html=1;fontSize=12;startSize=8;endSize=8;" edge="1" parent="1" source="aRFu0BlIMAANHYOAxxQj-28" target="aRFu0BlIMAANHYOAxxQj-30">
          <mxGeometry relative="1" as="geometry" />
        </mxCell>
        <mxCell id="aRFu0BlIMAANHYOAxxQj-33" value="" style="edgeStyle=none;curved=1;rounded=0;orthogonalLoop=1;jettySize=auto;html=1;fontSize=12;startSize=8;endSize=8;" edge="1" parent="1" source="aRFu0BlIMAANHYOAxxQj-28" target="aRFu0BlIMAANHYOAxxQj-32">
          <mxGeometry relative="1" as="geometry" />
        </mxCell>
        <mxCell id="aRFu0BlIMAANHYOAxxQj-28" value="Registro Carro" style="whiteSpace=wrap;html=1;rounded=1;" vertex="1" parent="1">
          <mxGeometry x="382" y="77" width="120" height="60" as="geometry" />
        </mxCell>
        <mxCell id="aRFu0BlIMAANHYOAxxQj-42" style="edgeStyle=none;curved=1;rounded=0;orthogonalLoop=1;jettySize=auto;html=1;fontSize=12;startSize=8;endSize=8;" edge="1" parent="1" source="aRFu0BlIMAANHYOAxxQj-30" target="aRFu0BlIMAANHYOAxxQj-41">
          <mxGeometry relative="1" as="geometry" />
        </mxCell>
        <mxCell id="aRFu0BlIMAANHYOAxxQj-44" style="edgeStyle=none;curved=1;rounded=0;orthogonalLoop=1;jettySize=auto;html=1;exitX=1;exitY=0;exitDx=0;exitDy=0;entryX=0.5;entryY=1;entryDx=0;entryDy=0;fontSize=12;startSize=8;endSize=8;" edge="1" parent="1" source="aRFu0BlIMAANHYOAxxQj-30" target="aRFu0BlIMAANHYOAxxQj-43">
          <mxGeometry relative="1" as="geometry" />
        </mxCell>
        <mxCell id="aRFu0BlIMAANHYOAxxQj-30" value="Pago" style="whiteSpace=wrap;html=1;rounded=1;" vertex="1" parent="1">
          <mxGeometry x="622" y="77" width="120" height="60" as="geometry" />
        </mxCell>
        <mxCell id="aRFu0BlIMAANHYOAxxQj-32" value="Carro Inactivo" style="whiteSpace=wrap;html=1;rounded=1;fillColor=#ffe6cc;strokeColor=#d79b00;" vertex="1" parent="1">
          <mxGeometry x="382" y="-103" width="120" height="60" as="geometry" />
        </mxCell>
        <mxCell id="aRFu0BlIMAANHYOAxxQj-34" value="Metodos Pago" style="swimlane;fontStyle=0;childLayout=stackLayout;horizontal=1;startSize=30;horizontalStack=0;resizeParent=1;resizeParentMax=0;resizeLast=0;collapsible=1;marginBottom=0;whiteSpace=wrap;html=1;" vertex="1" parent="1">
          <mxGeometry x="-276" y="267" width="140" height="90" as="geometry" />
        </mxCell>
        <mxCell id="aRFu0BlIMAANHYOAxxQj-35" value="Nombre" style="text;strokeColor=none;fillColor=none;align=left;verticalAlign=middle;spacingLeft=4;spacingRight=4;overflow=hidden;points=[[0,0.5],[1,0.5]];portConstraint=eastwest;rotatable=0;whiteSpace=wrap;html=1;" vertex="1" parent="aRFu0BlIMAANHYOAxxQj-34">
          <mxGeometry y="30" width="140" height="30" as="geometry" />
        </mxCell>
        <mxCell id="aRFu0BlIMAANHYOAxxQj-40" value="Estado" style="text;strokeColor=none;fillColor=none;align=left;verticalAlign=middle;spacingLeft=4;spacingRight=4;overflow=hidden;points=[[0,0.5],[1,0.5]];portConstraint=eastwest;rotatable=0;whiteSpace=wrap;html=1;" vertex="1" parent="aRFu0BlIMAANHYOAxxQj-34">
          <mxGeometry y="60" width="140" height="30" as="geometry" />
        </mxCell>
        <mxCell id="aRFu0BlIMAANHYOAxxQj-41" value="Carro Activo" style="whiteSpace=wrap;html=1;rounded=1;fillColor=#d5e8d4;strokeColor=#82b366;" vertex="1" parent="1">
          <mxGeometry x="733" y="-75" width="120" height="60" as="geometry" />
        </mxCell>
        <mxCell id="aRFu0BlIMAANHYOAxxQj-43" value="Fecha pago" style="whiteSpace=wrap;html=1;rounded=1;fillColor=#d5e8d4;strokeColor=#82b366;" vertex="1" parent="1">
          <mxGeometry x="896" y="-75" width="120" height="60" as="geometry" />
        </mxCell>
      </root>
    </mxGraphModel>
  </diagram>
</mxfile>
